# xmcd
# 
# Track frame offsets:
#     150
#     7223
#     24285
#     43748
#     61973
#     89221
#     109339
#     124923
#     143403
#     146553
#     156378
#     173853
# 
# Disc length: 2711
# 
# Revision: 0
# Processed by: cddbd v1.5.2PL0 Copyright (c) Steve Scherf et al.
# Submitted via: fre:ac v1.0.31
# 
DISCID=ac0a950c
DTITLE=Emerson, Lake and Palmer - Eastern Front [Disc 1]
DYEAR=1996
DGENRE=Progressive Rock
TTITLE0=Karn Evil 9 1st Imp Pt.2
TTITLE1=Tiger In A Spotlight
TTITLE2=Hoedown
TTITLE3=Touch And Go
TTITLE4=Knife Edge
TTITLE5=Bitches Crystal
TTITLE6=Still... You Turn Me On
TTITLE7=From The Beginning
TTITLE8=Keith Emerson MC
TTITLE9=A Tribute to Kevin Gilbert
TTITLE10=Honky Tonk Train Blues
TTITLE11=Take A Pebble
EXTD=
EXTT0=
EXTT1=
EXTT2=
EXTT3=
EXTT4=
EXTT5=
EXTT6=
EXTT7=
EXTT8=
EXTT9=
EXTT10=
EXTT11=
PLAYORDER=
